<svg width="34" height="24" viewBox="0 0 34 24" fill="none" xmlns="http://www.w3.org/2000/svg">
<rect x="0.5" y="0.5" width="33" height="23" rx="3.5" fill="white" stroke="#D9D9D9"/>
<path d="M21.9823 11.9542C22.5135 11.9658 23.0478 11.9308 23.577 11.9724C24.1128 12.0724 24.242 12.8836 23.7659 13.1493C23.4411 13.3243 23.0552 13.2145 22.703 13.2454H21.9823V11.9542ZM23.8841 10.4928C24.0022 10.9095 23.6006 11.2835 23.1993 11.2262H21.9823C21.9908 10.8333 21.9656 10.4068 21.9946 10.0346C22.4822 10.0484 22.9742 10.0066 23.4589 10.0564C23.6672 10.1088 23.8415 10.28 23.8841 10.4928ZM26.8131 4.31448C26.8357 5.11012 26.8163 5.94781 26.8228 6.75959C26.8213 10.06 26.826 13.3603 26.8202 16.6609C26.7989 17.8978 25.7027 18.9726 24.4743 18.9972C23.2448 19.0022 22.0151 18.998 20.7854 18.9994V14.0099C22.1252 14.003 23.4657 14.0239 24.805 13.9994C25.4263 13.9604 26.1068 13.5505 26.1357 12.8668C26.2089 12.1801 25.5615 11.7051 24.9468 11.6301C24.7106 11.624 24.7175 11.5613 24.9468 11.5339C25.5331 11.4072 25.9934 10.8004 25.8209 10.1928C25.674 9.55368 24.9676 9.30631 24.38 9.30754C23.182 9.2994 21.9837 9.30641 20.7857 9.30404C20.7934 8.37256 20.7695 7.44008 20.7985 6.50928C20.8935 5.2947 22.0172 4.29307 23.2283 4.3148C24.4234 4.31462 25.6183 4.31462 26.8131 4.31457V4.31448Z" fill="url(#paint0_linear)"/>
<path d="M7.24671 6.63505C7.27731 5.40011 8.37818 4.33415 9.60494 4.3161C10.8299 4.31233 12.0551 4.31556 13.2801 4.31446C13.2767 8.44633 13.2867 12.5786 13.275 16.7103C13.2279 17.9302 12.139 18.9759 10.9256 18.9975C9.69828 19.0019 8.47083 18.9981 7.24348 18.9993V13.8416C8.43565 14.1232 9.68582 14.2431 10.902 14.0563C11.629 13.9393 12.4244 13.5823 12.6706 12.8281C12.8517 12.1829 12.7497 11.504 12.7767 10.8418V9.30402H10.6719C10.6624 10.3211 10.6913 11.3399 10.6567 12.3557C10.5999 12.9801 9.9816 13.3768 9.39272 13.3556C8.66241 13.3633 7.2152 12.8263 7.2152 12.8263C7.21157 10.9208 7.23639 8.53443 7.24671 6.63524V6.63505Z" fill="url(#paint1_linear)"/>
<path d="M14.0649 9.92427C13.9541 9.94778 14.0426 9.54689 14.0143 9.39482C14.0218 8.43328 13.9985 7.4707 14.0271 6.50985C14.1218 5.29014 15.2542 4.28601 16.4702 4.31456H20.0512C20.0478 8.44642 20.0578 12.5787 20.0461 16.7104C19.9989 17.9303 18.9099 18.9759 17.6965 18.9976C16.4691 19.0022 15.2417 18.9983 14.0142 18.9995V13.3485C14.8525 14.0363 15.9918 14.1433 17.0362 14.1452C17.8235 14.1449 18.6062 14.0235 19.3708 13.842V12.8067C18.5092 13.2361 17.4963 13.5089 16.5411 13.2622C15.8748 13.0963 15.3911 12.4524 15.4019 11.7648C15.3247 11.0497 15.7439 10.2947 16.4466 10.0822C17.3191 9.80903 18.27 10.0179 19.0878 10.373C19.263 10.4648 19.4408 10.5786 19.3708 10.2857V9.47197C18.003 9.14654 16.5474 9.0268 15.1732 9.38081C14.7755 9.49301 14.388 9.66318 14.0649 9.92436V9.92427Z" fill="url(#paint2_linear)"/>
<defs>
<linearGradient id="paint0_linear" x1="20.7442" y1="11.343" x2="26.7848" y2="11.343" gradientUnits="userSpaceOnUse">
<stop stop-color="#58B03A"/>
<stop offset="1" stop-color="#55B330"/>
</linearGradient>
<linearGradient id="paint1_linear" x1="7.11505" y1="11.7975" x2="13.1811" y2="11.7975" gradientUnits="userSpaceOnUse">
<stop stop-color="#0F6EB6"/>
<stop offset="1" stop-color="#006DBA"/>
</linearGradient>
<linearGradient id="paint2_linear" x1="14.0054" y1="11.4853" x2="20.05" y2="11.4853" gradientUnits="userSpaceOnUse">
<stop stop-color="#DE0D3D"/>
<stop offset="1" stop-color="#E30138"/>
</linearGradient>
</defs>
</svg>
